<?xml version="1.0" standalone="no"?>
<!DOCTYPE svg PUBLIC "-//W3C//DTD SVG 20010904//EN"
 "http://www.w3.org/TR/2001/REC-SVG-20010904/DTD/svg10.dtd">
<svg version="1.0" xmlns="http://www.w3.org/2000/svg"
 width="74.000000pt" height="74.000000pt" viewBox="0 0 74.000000 74.000000"
 preserveAspectRatio="xMidYMid meet">

<g transform="translate(0.000000,74.000000) scale(0.100000,-0.100000)"
fill="#000000" stroke="none">
<path d="M277 653 l-87 -88 97 -97 98 -98 -98 -98 -97 -97 87 -87 88 -87 188
186 c103 102 186 187 184 187 -1 1 -86 83 -187 183 l-185 183 -88 -87z"/>
<path d="M61 434 l-63 -66 66 -66 67 -65 67 66 67 67 -65 65 c-35 36 -67 65
-70 65 -3 0 -34 -30 -69 -66z"/>
</g>
</svg>
