<?xml version="1.0" standalone="no"?>
<!DOCTYPE svg PUBLIC "-//W3C//DTD SVG 20010904//EN"
 "http://www.w3.org/TR/2001/REC-SVG-20010904/DTD/svg10.dtd">
<svg version="1.0" xmlns="http://www.w3.org/2000/svg"
 width="73.000000pt" height="73.000000pt" viewBox="0 0 73.000000 73.000000"
 preserveAspectRatio="xMidYMid meet">

<g transform="translate(0.000000,73.000000) scale(0.100000,-0.100000)"
fill="#000000" stroke="none">
<path d="M235 647 c-75 -20 -147 -61 -189 -107 -44 -49 -41 -62 6 -28 59 44
96 53 213 53 91 0 118 -4 156 -21 92 -43 148 -126 134 -200 -10 -55 -85 -128
-152 -148 l-22 -7 19 66 c10 36 15 65 11 65 -4 0 -74 -40 -155 -89 l-148 -89
59 -12 c32 -7 107 -23 168 -35 60 -13 111 -23 112 -21 1 1 -9 19 -23 40 -14
21 -24 39 -22 40 1 1 30 8 63 15 314 67 356 351 68 461 -72 28 -223 36 -298
17z"/>
</g>
</svg>
