<?xml version="1.0" standalone="no"?>
<!DOCTYPE svg PUBLIC "-//W3C//DTD SVG 20010904//EN"
 "http://www.w3.org/TR/2001/REC-SVG-20010904/DTD/svg10.dtd">
<svg version="1.0" xmlns="http://www.w3.org/2000/svg"
 width="152.000000pt" height="92.000000pt" viewBox="0 0 152.000000 92.000000"
 preserveAspectRatio="xMidYMid meet">

<g transform="translate(0.000000,92.000000) scale(0.100000,-0.100000)"
fill="#000000" stroke="none">
<path d="M270 735 l-85 -85 95 -95 95 -95 -95 -95 -95 -95 85 -85 c47 -47 88
-85 92 -85 4 0 90 81 190 180 l183 180 -182 180 c-100 99 -186 180 -190 180
-5 0 -46 -38 -93 -85z"/>
<path d="M750 704 l-75 -76 84 -79 85 -80 -84 -84 -85 -85 78 -78 77 -77 163
163 162 162 -160 155 c-88 85 -162 154 -165 155 -3 0 -39 -34 -80 -76z"/>
<path d="M1195 660 l-59 -60 67 -68 67 -67 -67 -67 -67 -67 65 -60 64 -60 128
127 127 127 -127 127 c-70 71 -130 128 -133 128 -3 0 -32 -27 -65 -60z"/>
<path d="M72 528 c-35 -33 -62 -66 -60 -72 2 -6 30 -37 64 -68 l60 -57 64 64
65 65 -65 65 -65 64 -63 -61z"/>
</g>
</svg>
