<?xml version="1.0" standalone="no"?>
<!DOCTYPE svg PUBLIC "-//W3C//DTD SVG 20010904//EN"
 "http://www.w3.org/TR/2001/REC-SVG-20010904/DTD/svg10.dtd">
<svg version="1.0" xmlns="http://www.w3.org/2000/svg"
 width="115.000000pt" height="95.000000pt" viewBox="0 0 115.000000 95.000000"
 preserveAspectRatio="xMidYMid meet">

<g transform="translate(0.000000,95.000000) scale(0.100000,-0.100000)"
fill="#000000" stroke="none">
<path d="M273 752 l-82 -87 94 -95 95 -95 -94 -95 -95 -95 86 -89 85 -89 184
184 184 184 -182 182 c-101 101 -185 183 -188 183 -3 0 -42 -39 -87 -88z"/>
<path d="M750 725 l-74 -75 64 -67 c83 -85 90 -93 90 -101 0 -4 -34 -41 -75
-82 -41 -41 -75 -79 -75 -85 0 -6 34 -44 76 -85 l76 -75 159 165 159 165 -158
158 c-86 86 -159 157 -162 157 -3 0 -39 -34 -80 -75z"/>
<path d="M62 537 l-62 -63 65 -64 65 -64 65 64 65 64 -62 63 c-34 35 -65 63
-68 63 -3 0 -34 -28 -68 -63z"/>
</g>
</svg>
